<svg width="17" height="18" viewBox="0 0 17 18" fill="none" xmlns="http://www.w3.org/2000/svg">
<path d="M5.62845 4.50049C5.45112 4.50456 5.28251 4.57819 5.15898 4.70548C5.03545 4.83277 4.96692 5.00352 4.96818 5.18089C4.96943 5.35826 5.04037 5.52803 5.16568 5.65356C5.291 5.77909 5.46064 5.85033 5.63801 5.85189L10.733 5.81461L4.2006 12.347C4.07386 12.4737 4.00266 12.6456 4.00266 12.8249C4.00266 13.0041 4.07386 13.176 4.2006 13.3027C4.32734 13.4295 4.49923 13.5007 4.67846 13.5007C4.8577 13.5007 5.02959 13.4295 5.15633 13.3027L11.6858 6.77321L11.6481 11.862C11.6496 12.0393 11.7209 12.209 11.8464 12.3343C11.9719 12.4596 12.1417 12.5305 12.3191 12.5318C12.4964 12.533 12.6672 12.4645 12.7945 12.341C12.9218 12.2175 12.9954 12.0488 12.9995 11.8715L13.0487 5.30235C13.0495 5.19043 13.028 5.07947 12.9855 4.97592C12.9431 4.87237 12.8804 4.77829 12.8013 4.69915C12.7222 4.62001 12.6281 4.55739 12.5245 4.51492C12.421 4.47245 12.31 4.45097 12.1981 4.45175L5.62845 4.50049Z" fill="#FAFBFC"/>
</svg>
