<svg width="206" height="40" viewBox="0 0 206 40" fill="none" xmlns="http://www.w3.org/2000/svg">
<path d="M54.5037 29.6525C52.941 30.5928 51.0869 31.063 48.9415 31.063C46.0412 31.063 43.6972 30.1227 41.9093 28.2421C40.1347 26.3483 39.2474 23.8983 39.2474 20.8921C39.2474 17.5416 40.2076 14.8532 42.1279 12.8269C44.0481 10.7875 46.6107 9.76774 49.8156 9.76774C51.6034 9.76774 53.1794 10.0988 54.5434 10.761V14.0983C53.0337 13.0388 51.418 12.5091 49.6964 12.5091C47.6172 12.5091 45.9088 13.2574 44.5712 14.7538C43.2469 16.2371 42.5847 18.1905 42.5847 20.614C42.5847 22.9978 43.2072 24.8783 44.452 26.2556C45.7102 27.6329 47.3921 28.3216 49.4977 28.3216C51.2723 28.3216 52.941 27.7323 54.5037 26.5536V29.6525Z" fill="black"/>
<path d="M67.9324 31.063C64.9262 31.063 62.5225 30.1161 60.7214 28.2223C58.9336 26.3152 58.0397 23.7924 58.0397 20.6537C58.0397 17.237 58.9733 14.5684 60.8406 12.6482C62.7079 10.7279 65.2308 9.76774 68.4092 9.76774C71.4419 9.76774 73.8058 10.7014 75.5009 12.5687C77.2093 14.436 78.0635 17.0251 78.0635 20.3359C78.0635 23.5805 77.1431 26.1828 75.3023 28.1428C73.4747 30.0896 71.0181 31.063 67.9324 31.063ZM68.1708 12.5091C66.0783 12.5091 64.4229 13.2242 63.2045 14.6545C61.9862 16.0716 61.377 18.0316 61.377 20.5345C61.377 22.9448 61.9928 24.8452 63.2244 26.2358C64.456 27.6263 66.1048 28.3216 68.1708 28.3216C70.2765 28.3216 71.8921 27.6396 73.0178 26.2755C74.1567 24.9114 74.7262 22.9713 74.7262 20.4551C74.7262 17.9124 74.1567 15.9524 73.0178 14.5751C71.8921 13.1978 70.2765 12.5091 68.1708 12.5091Z" fill="black"/>
<path d="M112.152 30.5862H108.894V18.9056C108.894 16.6543 108.543 15.0253 107.841 14.0188C107.152 13.0124 105.987 12.5091 104.345 12.5091C102.954 12.5091 101.769 13.1448 100.789 14.4161C99.8222 15.6875 99.3389 17.2105 99.3389 18.9851V30.5862H96.081V18.5083C96.081 14.5088 94.5382 12.5091 91.4525 12.5091C90.0222 12.5091 88.8436 13.1117 87.9165 14.3168C86.9895 15.5087 86.526 17.0648 86.526 18.9851V30.5862H83.2681V10.2445H86.526V13.4626H86.6054C88.049 10.9994 90.1546 9.76774 92.9225 9.76774C94.313 9.76774 95.5248 10.1584 96.5578 10.9398C97.5907 11.7079 98.2993 12.721 98.6833 13.9791C100.193 11.1715 102.444 9.76774 105.437 9.76774C109.914 9.76774 112.152 12.529 112.152 18.0514V30.5862Z" fill="black"/>
<path d="M121.647 27.6462H121.568V39.9426H118.31V10.2445H121.568V13.8202H121.647C123.25 11.1186 125.594 9.76774 128.679 9.76774C131.302 9.76774 133.348 10.6815 134.818 12.5091C136.288 14.3234 137.023 16.7602 137.023 19.8194C137.023 23.2229 136.195 25.951 134.54 28.0038C132.884 30.0432 130.62 31.063 127.746 31.063C125.11 31.063 123.077 29.924 121.647 27.6462ZM121.568 19.442V22.2827C121.568 23.9646 122.111 25.3948 123.197 26.5735C124.296 27.7389 125.686 28.3216 127.368 28.3216C129.342 28.3216 130.884 27.5667 131.997 26.057C133.122 24.5473 133.685 22.4482 133.685 19.7598C133.685 17.4952 133.162 15.7206 132.116 14.436C131.07 13.1514 129.653 12.5091 127.865 12.5091C125.971 12.5091 124.448 13.1713 123.296 14.4956C122.144 15.8067 121.568 17.4555 121.568 19.442Z" fill="black"/>
<path d="M156.788 30.5862H153.53V27.4078H153.451C152.034 29.8446 149.948 31.063 147.193 31.063C145.167 31.063 143.578 30.5266 142.426 29.4539C141.287 28.3812 140.718 26.9575 140.718 25.1829C140.718 21.3821 142.956 19.1705 147.432 18.548L153.53 17.6939C153.53 14.2374 152.133 12.5091 149.339 12.5091C146.889 12.5091 144.677 13.3434 142.704 15.0121V11.6748C144.704 10.4034 147.008 9.76774 149.617 9.76774C154.398 9.76774 156.788 12.2972 156.788 17.3561V30.5862ZM153.53 20.2962L148.624 20.9716C147.114 21.1835 145.975 21.5609 145.207 22.1039C144.439 22.6336 144.055 23.5805 144.055 24.9446C144.055 25.9378 144.406 26.7523 145.108 27.3879C145.823 28.0104 146.77 28.3216 147.948 28.3216C149.564 28.3216 150.895 27.7588 151.941 26.6331C153.001 25.4942 153.53 24.0573 153.53 22.3224V20.2962Z" fill="black"/>
<path d="M179.812 30.5862H176.554V18.9851C176.554 14.6678 174.978 12.5091 171.826 12.5091C170.197 12.5091 168.846 13.1249 167.774 14.3565C166.714 15.5749 166.184 17.1178 166.184 18.9851V30.5862H162.927V10.2445H166.184V13.6215H166.264C167.8 11.0523 170.025 9.76774 172.938 9.76774C175.163 9.76774 176.865 10.4895 178.044 11.933C179.222 13.3633 179.812 15.4359 179.812 18.1507V30.5862Z" fill="black"/>
<path d="M202.16 10.2445L192.803 33.844C191.135 38.0554 188.791 40.1611 185.771 40.1611C184.924 40.1611 184.215 40.075 183.646 39.9028V36.9827C184.348 37.2211 184.99 37.3403 185.573 37.3403C187.215 37.3403 188.446 36.3603 189.267 34.4003L190.896 30.5465L182.95 10.2445H186.566L192.068 25.8981C192.135 26.0967 192.274 26.6132 192.486 27.4475H192.605C192.671 27.1297 192.803 26.6265 193.002 25.9378L198.783 10.2445H202.16Z" fill="black"/>
<path d="M206.808 31.0232C206.199 31.0232 205.676 30.8047 205.239 30.3677C204.815 29.9307 204.603 29.4075 204.603 28.7983C204.603 28.1892 204.815 27.666 205.239 27.229C205.676 26.7787 206.199 26.5536 206.808 26.5536C207.431 26.5536 207.96 26.7787 208.397 27.229C208.834 27.666 209.053 28.1892 209.053 28.7983C209.053 29.4075 208.834 29.9307 208.397 30.3677C207.96 30.8047 207.431 31.0232 206.808 31.0232Z" fill="#2CBA56"/>
<path fill-rule="evenodd" clip-rule="evenodd" d="M29.0596 20.7477C29.0596 13.6987 23.3452 7.98431 16.2961 7.98431H7.10345V17.177C7.10345 24.2261 12.8178 29.9404 19.8669 29.9404L29.0596 29.9404V20.7477ZM25.0675 21.6629C25.0675 16.3131 20.7307 11.9763 15.381 11.9763L11.0955 11.9763L11.0955 16.2619C11.0955 21.6116 15.4323 25.9484 20.782 25.9484H25.0675V21.6629Z" fill="#2CBA56"/>
</svg>
